<?xml version="1.0" encoding="UTF-8" standalone="no"?>
<!-- Created with Inkscape (http://www.inkscape.org/) -->

<svg
   xmlns:dc="http://purl.org/dc/elements/1.1/"
   xmlns:cc="http://creativecommons.org/ns#"
   xmlns:rdf="http://www.w3.org/1999/02/22-rdf-syntax-ns#"
   xmlns:svg="http://www.w3.org/2000/svg"
   xmlns="http://www.w3.org/2000/svg"
   xmlns:sodipodi="http://sodipodi.sourceforge.net/DTD/sodipodi-0.dtd"
   xmlns:inkscape="http://www.inkscape.org/namespaces/inkscape"
   width="169.33333mm"
   height="169.33333mm"
   viewBox="0 0 599.99998 599.99998"
   id="svg2"
   version="1.1"
   inkscape:version="0.91 r13725"
   sodipodi:docname="Effect_SlowDown_multiple_line_cleaned.svg">
  <defs
     id="defs4" />
  <sodipodi:namedview
     id="base"
     pagecolor="#ffffff"
     bordercolor="#666666"
     borderopacity="1.0"
     inkscape:pageopacity="0.0"
     inkscape:pageshadow="2"
     inkscape:zoom="0.759683"
     inkscape:cx="260.64754"
     inkscape:cy="300.62845"
     inkscape:document-units="px"
     inkscape:current-layer="layer1"
     showgrid="false"
     inkscape:window-width="1366"
     inkscape:window-height="706"
     inkscape:window-x="-8"
     inkscape:window-y="-8"
     inkscape:window-maximized="1"
     fit-margin-top="0"
     fit-margin-left="0"
     fit-margin-right="0"
     fit-margin-bottom="0" />
  <metadata
     id="metadata7">
    <rdf:RDF>
      <cc:Work
         rdf:about="">
        <dc:format>image/svg+xml</dc:format>
        <dc:type
           rdf:resource="http://purl.org/dc/dcmitype/StillImage" />
        <dc:title></dc:title>
      </cc:Work>
    </rdf:RDF>
  </metadata>
  <g
     inkscape:label="Layer 1"
     inkscape:groupmode="layer"
     id="layer1"
     transform="translate(94.648632,-230.96324)">
    <path
       style="fill:none;fill-opacity:1;fill-rule:evenodd;stroke:#a02ea0;stroke-width:5;stroke-linecap:butt;stroke-linejoin:miter;stroke-miterlimit:4;stroke-dasharray:none;stroke-opacity:1"
       d="m 79.74913,444.97272 c 0,0 -7.84752,-1.54521 -9.94524,1.04528 -4.19547,5.181 6.28605,14.70946 2.09058,19.89046 -2.09772,2.59049 -9.94524,1.04528 -9.94524,1.04528"
       id="path5003"
       inkscape:connector-curvature="0"
       sodipodi:nodetypes="cssc" />
    <path
       style="fill:none;fill-opacity:1;fill-rule:evenodd;stroke:#a02ea0;stroke-width:5;stroke-linecap:butt;stroke-linejoin:miter;stroke-miterlimit:4;stroke-dasharray:none;stroke-opacity:1"
       d="m 225.45343,442.59156 c 0,0 -7.90275,1.23199 -8.98796,4.38371 -2.17045,6.30348 10.93789,11.67242 8.76744,17.9759 -1.08521,3.15172 -8.98796,4.38371 -8.98796,4.38371"
       id="path5003-4"
       inkscape:connector-curvature="0"
       sodipodi:nodetypes="cssc" />
    <path
       style="fill:none;fill-opacity:1;fill-rule:evenodd;stroke:#a02ea0;stroke-width:5;stroke-linecap:butt;stroke-linejoin:miter;stroke-miterlimit:4;stroke-dasharray:none;stroke-opacity:1"
       d="m 370.60237,441.82323 c 0,0 -7.00479,3.86059 -6.9466,7.1934 0.11636,6.66567 14.27046,7.22751 14.38682,13.89318 0.0582,3.33281 -6.9466,7.1934 -6.9466,7.1934"
       id="path5003-40"
       inkscape:connector-curvature="0"
       sodipodi:nodetypes="cssc" />
    <path
       style="fill:none;fill-opacity:1;fill-rule:evenodd;stroke:#a02ea0;stroke-width:5;stroke-linecap:butt;stroke-linejoin:miter;stroke-miterlimit:4;stroke-dasharray:none;stroke-opacity:1"
       d="m -74.54656,442.59157 c 0,0 -7.90275,1.23199 -8.98796,4.38371 -2.17045,6.30348 10.93789,11.67242 8.76744,17.9759 -1.08521,3.15172 -8.98796,4.38371 -8.98796,4.38371"
       id="path5003-48"
       inkscape:connector-curvature="0"
       sodipodi:nodetypes="cssc" />
    <path
       style="fill:none;fill-opacity:1;fill-rule:evenodd;stroke:#a02ea0;stroke-width:5;stroke-linecap:butt;stroke-linejoin:miter;stroke-miterlimit:4;stroke-dasharray:none;stroke-opacity:1"
       d="m 119.36086,356.56547 c 0,0 -1.54521,7.84752 1.04528,9.94524 5.181,4.19547 14.70946,-6.28605 19.89046,-2.09058 2.59049,2.09772 1.04528,9.94524 1.04528,9.94524"
       id="path5003-7"
       inkscape:connector-curvature="0"
       sodipodi:nodetypes="cssc" />
    <path
       style="fill:none;fill-opacity:1;fill-rule:evenodd;stroke:#a02ea0;stroke-width:5;stroke-linecap:butt;stroke-linejoin:miter;stroke-miterlimit:4;stroke-dasharray:none;stroke-opacity:1"
       d="m 266.9797,360.86117 c 0,0 1.23199,7.90275 4.38371,8.98796 6.30348,2.17045 11.67242,-10.93789 17.9759,-8.76744 3.15172,1.08521 4.38371,8.98796 4.38371,8.98796"
       id="path5003-4-1"
       inkscape:connector-curvature="0"
       sodipodi:nodetypes="cssc" />
    <path
       style="fill:none;fill-opacity:1;fill-rule:evenodd;stroke:#a02ea0;stroke-width:5;stroke-linecap:butt;stroke-linejoin:miter;stroke-miterlimit:4;stroke-dasharray:none;stroke-opacity:1"
       d="m 416.21136,365.71223 c 0,0 3.86059,7.00479 7.1934,6.9466 6.66567,-0.11636 7.22751,-14.27046 13.89318,-14.38682 3.33281,-0.0582 7.1934,6.9466 7.1934,6.9466"
       id="path5003-40-6"
       inkscape:connector-curvature="0"
       sodipodi:nodetypes="cssc" />
    <path
       style="fill:none;fill-opacity:1;fill-rule:evenodd;stroke:#a02ea0;stroke-width:5;stroke-linecap:butt;stroke-linejoin:miter;stroke-miterlimit:4;stroke-dasharray:none;stroke-opacity:1"
       d="m -33.020294,360.86117 c 0,0 1.23199,7.90275 4.38371,8.98796 6.30348,2.17045 11.67242,-10.93789 17.9759,-8.76744 3.1517203,1.08521 4.3837103,8.98796 4.3837103,8.98796"
       id="path5003-48-3"
       inkscape:connector-curvature="0"
       sodipodi:nodetypes="cssc" />
    <path
       style="fill:none;fill-opacity:1;fill-rule:evenodd;stroke:#a02ea0;stroke-width:5;stroke-linecap:butt;stroke-linejoin:miter;stroke-miterlimit:4;stroke-dasharray:none;stroke-opacity:1"
       d="m 141.34188,555.361 c 0,0 1.54521,-7.84752 -1.04528,-9.94524 -5.181,-4.19547 -14.70946,6.28605 -19.89046,2.09058 -2.59049,-2.09772 -1.04528,-9.94524 -1.04528,-9.94524"
       id="path5003-6"
       inkscape:connector-curvature="0"
       sodipodi:nodetypes="cssc" />
    <path
       style="fill:none;fill-opacity:1;fill-rule:evenodd;stroke:#a02ea0;stroke-width:5;stroke-linecap:butt;stroke-linejoin:miter;stroke-miterlimit:4;stroke-dasharray:none;stroke-opacity:1"
       d="m 293.72304,551.0653 c 0,0 -1.23199,-7.90275 -4.38371,-8.98796 -6.30348,-2.17045 -11.67242,10.93789 -17.9759,8.76744 -3.15172,-1.08521 -4.38371,-8.98796 -4.38371,-8.98796"
       id="path5003-4-5"
       inkscape:connector-curvature="0"
       sodipodi:nodetypes="cssc" />
    <path
       style="fill:none;fill-opacity:1;fill-rule:evenodd;stroke:#a02ea0;stroke-width:5;stroke-linecap:butt;stroke-linejoin:miter;stroke-miterlimit:4;stroke-dasharray:none;stroke-opacity:1"
       d="m 444.49137,546.21424 c 0,0 -3.86059,-7.00479 -7.1934,-6.9466 -6.66567,0.11636 -7.22751,14.27046 -13.89318,14.38682 -3.33281,0.0582 -7.1934,-6.9466 -7.1934,-6.9466"
       id="path5003-40-8"
       inkscape:connector-curvature="0"
       sodipodi:nodetypes="cssc" />
    <path
       style="fill:none;fill-opacity:1;fill-rule:evenodd;stroke:#a02ea0;stroke-width:5;stroke-linecap:butt;stroke-linejoin:miter;stroke-miterlimit:4;stroke-dasharray:none;stroke-opacity:1"
       d="m -6.276968,551.0653 c 0,0 -1.23199,-7.90275 -4.38371,-8.98796 -6.30348,-2.17045 -11.67242,10.93789 -17.9759,8.76744 -3.15172,-1.08521 -4.38371,-8.98796 -4.38371,-8.98796"
       id="path5003-48-6"
       inkscape:connector-curvature="0"
       sodipodi:nodetypes="cssc" />
    <path
       style="fill:none;fill-opacity:1;fill-rule:evenodd;stroke:#a02ea0;stroke-width:5;stroke-linecap:butt;stroke-linejoin:miter;stroke-miterlimit:4;stroke-dasharray:none;stroke-opacity:1"
       d="m 180.9536,766.95375 c 0,0 7.84752,1.54521 9.94524,-1.04528 4.19547,-5.181 -6.28605,-14.70946 -2.09058,-19.89046 2.09772,-2.59049 9.94524,-1.04528 9.94524,-1.04528"
       id="path5003-6-8"
       inkscape:connector-curvature="0"
       sodipodi:nodetypes="cssc" />
    <path
       style="fill:none;fill-opacity:1;fill-rule:evenodd;stroke:#a02ea0;stroke-width:5;stroke-linecap:butt;stroke-linejoin:miter;stroke-miterlimit:4;stroke-dasharray:none;stroke-opacity:1"
       d="m 335.2493,769.3349 c 0,0 7.90275,-1.23199 8.98796,-4.38371 2.17045,-6.30348 -10.93789,-11.67242 -8.76744,-17.9759 1.08521,-3.15172 8.98796,-4.38371 8.98796,-4.38371"
       id="path5003-4-5-0"
       inkscape:connector-curvature="0"
       sodipodi:nodetypes="cssc" />
    <path
       style="fill:none;fill-opacity:1;fill-rule:evenodd;stroke:#a02ea0;stroke-width:5;stroke-linecap:butt;stroke-linejoin:miter;stroke-miterlimit:4;stroke-dasharray:none;stroke-opacity:1"
       d="m 490.10036,770.10324 c 0,0 7.00479,-3.86059 6.9466,-7.1934 -0.11636,-6.66567 -14.27046,-7.22751 -14.38682,-13.89318 -0.0582,-3.33281 6.9466,-7.1934 6.9466,-7.1934"
       id="path5003-40-8-9"
       inkscape:connector-curvature="0"
       sodipodi:nodetypes="cssc" />
    <path
       style="fill:none;fill-opacity:1;fill-rule:evenodd;stroke:#a02ea0;stroke-width:5;stroke-linecap:butt;stroke-linejoin:miter;stroke-miterlimit:4;stroke-dasharray:none;stroke-opacity:1"
       d="m 35.2493,769.3349 c 0,0 7.90275,-1.23199 8.98796,-4.38371 2.17045,-6.30348 -10.93789,-11.67242 -8.76744,-17.9759 1.08521,-3.15172 8.98796,-4.38371 8.98796,-4.38371"
       id="path5003-48-6-2"
       inkscape:connector-curvature="0"
       sodipodi:nodetypes="cssc" />
  </g>
</svg>
