<?xml version="1.0" encoding="UTF-8" standalone="no"?>
<!-- Created with Inkscape (http://www.inkscape.org/) -->

<svg
   xmlns:dc="http://purl.org/dc/elements/1.1/"
   xmlns:cc="http://creativecommons.org/ns#"
   xmlns:rdf="http://www.w3.org/1999/02/22-rdf-syntax-ns#"
   xmlns:svg="http://www.w3.org/2000/svg"
   xmlns="http://www.w3.org/2000/svg"
   xmlns:sodipodi="http://sodipodi.sourceforge.net/DTD/sodipodi-0.dtd"
   xmlns:inkscape="http://www.inkscape.org/namespaces/inkscape"
   width="197.55556mm"
   height="19.755556mm"
   viewBox="0 0 700.00001 70.000002"
   id="svg2"
   version="1.1"
   inkscape:version="0.91 r13725"
   sodipodi:docname="Pill_Star_Single_Line.svg"
   inkscape:export-filename="D:\Martin_Work\Group_Projects\JavaProjects\Orion\OrionResources\Assets SVG Sprite\Pill_Star_Single_Line.png"
   inkscape:export-xdpi="90"
   inkscape:export-ydpi="90">
  <defs
     id="defs4" />
  <sodipodi:namedview
     id="base"
     pagecolor="#ffffff"
     bordercolor="#666666"
     borderopacity="1.0"
     inkscape:pageopacity="0.0"
     inkscape:pageshadow="2"
     inkscape:zoom="2.8"
     inkscape:cx="102.11253"
     inkscape:cy="117.14286"
     inkscape:document-units="px"
     inkscape:current-layer="layer1"
     showgrid="false"
     inkscape:window-width="732"
     inkscape:window-height="405"
     inkscape:window-x="25"
     inkscape:window-y="25"
     inkscape:window-maximized="0"
     fit-margin-top="0"
     fit-margin-left="0"
     fit-margin-right="0"
     fit-margin-bottom="0" />
  <metadata
     id="metadata7">
    <rdf:RDF>
      <cc:Work
         rdf:about="">
        <dc:format>image/svg+xml</dc:format>
        <dc:type
           rdf:resource="http://purl.org/dc/dcmitype/StillImage" />
        <dc:title></dc:title>
      </cc:Work>
    </rdf:RDF>
  </metadata>
  <g
     inkscape:label="Layer 1"
     inkscape:groupmode="layer"
     id="layer1"
     transform="translate(-250,-132.3622)">
    <path
       sodipodi:type="star"
       style="opacity:1;fill:#8da8cb;fill-opacity:1;stroke:#2f4768;stroke-width:3.49999475;stroke-miterlimit:4;stroke-dasharray:none;stroke-opacity:1"
       id="path4144-1"
       sodipodi:sides="4"
       sodipodi:cx="285"
       sodipodi:cy="167.36169"
       sodipodi:r1="30.252934"
       sodipodi:r2="12.101174"
       sodipodi:arg1="1.5707963"
       sodipodi:arg2="2.3561945"
       inkscape:flatsided="false"
       inkscape:rounded="0.07"
       inkscape:randomized="0"
       d="m 285,197.61463 c -1.63258,0 -7.40242,-20.54171 -8.55682,-21.69611 -1.15441,-1.15441 -21.69611,-6.92425 -21.69611,-8.55682 0,-1.63258 20.5417,-7.40242 21.69611,-8.55683 1.1544,-1.1544 6.92424,-21.69611 8.55682,-21.69611 1.63258,0 7.40242,20.54171 8.55682,21.69611 1.15441,1.15441 21.69611,6.92425 21.69611,8.55682 0,1.63258 -20.5417,7.40242 -21.69611,8.55683 -1.1544,1.1544 -6.92424,21.69611 -8.55682,21.69611 z"
       transform="matrix(0.15174144,-0.95805769,0.95806056,0.15174188,81.411052,415.01286)" />
    <path
       sodipodi:type="star"
       style="opacity:1;fill:#8da8cb;fill-opacity:1;stroke:#2f4768;stroke-width:3.49999475;stroke-miterlimit:4;stroke-dasharray:none;stroke-opacity:1"
       id="path4144-1-2"
       sodipodi:sides="4"
       sodipodi:cx="355"
       sodipodi:cy="167.36169"
       sodipodi:r1="30.252934"
       sodipodi:r2="12.101174"
       sodipodi:arg1="1.5707963"
       sodipodi:arg2="2.3561945"
       inkscape:flatsided="false"
       inkscape:rounded="0.07"
       inkscape:randomized="0"
       d="m 355,197.61463 c -1.63258,0 -7.40242,-20.54171 -8.55682,-21.69611 -1.15441,-1.15441 -21.69611,-6.92425 -21.69611,-8.55682 0,-1.63258 20.5417,-7.40242 21.69611,-8.55683 1.1544,-1.1544 6.92424,-21.69611 8.55682,-21.69611 1.63258,0 7.40242,20.54171 8.55682,21.69611 1.15441,1.15441 21.69611,6.92425 21.69611,8.55682 0,1.63258 -20.5417,7.40242 -21.69611,8.55683 -1.1544,1.1544 -6.92424,21.69611 -8.55682,21.69611 z"
       transform="matrix(0.29047597,-0.89399313,0.89399581,0.29047684,102.26038,436.11506)" />
    <path
       sodipodi:type="star"
       style="opacity:1;fill:#8da8cb;fill-opacity:1;stroke:#2f4768;stroke-width:3.49999475;stroke-miterlimit:4;stroke-dasharray:none;stroke-opacity:1"
       id="path4144-1-3"
       sodipodi:sides="4"
       sodipodi:cx="425"
       sodipodi:cy="167.36169"
       sodipodi:r1="30.252934"
       sodipodi:r2="12.101174"
       sodipodi:arg1="1.5707963"
       sodipodi:arg2="2.3561945"
       inkscape:flatsided="false"
       inkscape:rounded="0.07"
       inkscape:randomized="0"
       d="m 425,197.61463 c -1.63258,0 -7.40242,-20.54171 -8.55682,-21.69611 -1.15441,-1.15441 -21.69611,-6.92425 -21.69611,-8.55682 0,-1.63258 20.5417,-7.40242 21.69611,-8.55683 1.1544,-1.1544 6.92424,-21.69611 8.55682,-21.69611 1.63258,0 7.40242,20.54171 8.55682,21.69611 1.15441,1.15441 21.69611,6.92425 21.69611,8.55682 0,1.63258 -20.5417,7.40242 -21.69611,8.55683 -1.1544,1.1544 -6.92424,21.69611 -8.55682,21.69611 z"
       transform="matrix(0.41313135,-0.81081593,0.81081837,0.41313259,113.71924,442.8164)" />
    <path
       sodipodi:type="star"
       style="opacity:1;fill:#8da8cb;fill-opacity:1;stroke:#2f4768;stroke-width:3.49999475;stroke-miterlimit:4;stroke-dasharray:none;stroke-opacity:1"
       id="path4144-1-38"
       sodipodi:sides="4"
       sodipodi:cx="495"
       sodipodi:cy="167.36169"
       sodipodi:r1="30.252934"
       sodipodi:r2="12.101174"
       sodipodi:arg1="1.5707963"
       sodipodi:arg2="2.3561945"
       inkscape:flatsided="false"
       inkscape:rounded="0.07"
       inkscape:randomized="0"
       d="m 495,197.61463 c -1.63258,0 -7.40242,-20.54171 -8.55682,-21.69611 -1.15441,-1.15441 -21.69611,-6.92425 -21.69611,-8.55682 0,-1.63258 20.5417,-7.40242 21.69611,-8.55683 1.1544,-1.1544 6.92424,-21.69611 8.55682,-21.69611 1.63258,0 7.40242,20.54171 8.55682,21.69611 1.15441,1.15441 21.69611,6.92425 21.69611,8.55682 0,1.63258 -20.5417,7.40242 -21.69611,8.55683 -1.1544,1.1544 -6.92424,21.69611 -8.55682,21.69611 z"
       transform="matrix(0.51725102,-0.71193495,0.71193709,0.51725258,119.80975,433.20173)" />
    <path
       sodipodi:type="star"
       style="opacity:1;fill:#8da8cb;fill-opacity:1;stroke:#2f4768;stroke-width:3.49999475;stroke-miterlimit:4;stroke-dasharray:none;stroke-opacity:1"
       id="path4144-1-5"
       sodipodi:sides="4"
       sodipodi:cx="565"
       sodipodi:cy="167.36169"
       sodipodi:r1="30.252934"
       sodipodi:r2="12.101174"
       sodipodi:arg1="1.5707963"
       sodipodi:arg2="2.3561945"
       inkscape:flatsided="false"
       inkscape:rounded="0.07"
       inkscape:randomized="0"
       d="m 565,197.61463 c -1.63258,0 -7.40242,-20.54171 -8.55682,-21.69611 -1.15441,-1.15441 -21.69611,-6.92425 -21.69611,-8.55682 0,-1.63258 20.5417,-7.40242 21.69611,-8.55683 1.1544,-1.1544 6.92424,-21.69611 8.55682,-21.69611 1.63258,0 7.40242,20.54171 8.55682,21.69611 1.15441,1.15441 21.69611,6.92425 21.69611,8.55682 0,1.63258 -20.5417,7.40242 -21.69611,8.55683 -1.1544,1.1544 -6.92424,21.69611 -8.55682,21.69611 z"
       transform="matrix(0.60104076,-0.60104076,0.60104256,0.60104256,124.82047,406.35872)" />
    <path
       sodipodi:type="star"
       style="opacity:1;fill:#8da8cb;fill-opacity:1;stroke:#2f4768;stroke-width:3.49999475;stroke-miterlimit:4;stroke-dasharray:none;stroke-opacity:1"
       id="path4144-1-1"
       sodipodi:sides="4"
       sodipodi:cx="635"
       sodipodi:cy="167.36169"
       sodipodi:r1="30.252934"
       sodipodi:r2="12.101174"
       sodipodi:arg1="1.5707963"
       sodipodi:arg2="2.3561945"
       inkscape:flatsided="false"
       inkscape:rounded="0.07"
       inkscape:randomized="0"
       d="m 635,197.61463 c -1.63258,0 -7.40242,-20.54171 -8.55682,-21.69611 -1.15441,-1.15441 -21.69611,-6.92425 -21.69611,-8.55682 0,-1.63258 20.5417,-7.40242 21.69611,-8.55683 1.1544,-1.1544 6.92424,-21.69611 8.55682,-21.69611 1.63258,0 7.40242,20.54171 8.55682,21.69611 1.15441,1.15441 21.69611,6.92425 21.69611,8.55682 0,1.63258 -20.5417,7.40242 -21.69611,8.55683 -1.1544,1.1544 -6.92424,21.69611 -8.55682,21.69611 z"
       transform="matrix(0.71193495,-0.51725102,0.51725258,0.71193709,96.353036,376.6656)" />
    <path
       sodipodi:type="star"
       style="opacity:1;fill:#8da8cb;fill-opacity:1;stroke:#2f4768;stroke-width:3.49999475;stroke-miterlimit:4;stroke-dasharray:none;stroke-opacity:1"
       id="path4144-1-6"
       sodipodi:sides="4"
       sodipodi:cx="705"
       sodipodi:cy="167.36169"
       sodipodi:r1="30.252934"
       sodipodi:r2="12.101174"
       sodipodi:arg1="1.5707963"
       sodipodi:arg2="2.3561945"
       inkscape:flatsided="false"
       inkscape:rounded="0.07"
       inkscape:randomized="0"
       d="m 705,197.61463 c -1.63258,0 -7.40242,-20.54171 -8.55682,-21.69611 -1.15441,-1.15441 -21.69611,-6.92425 -21.69611,-8.55682 0,-1.63258 20.5417,-7.40242 21.69611,-8.55683 1.1544,-1.1544 6.92424,-21.69611 8.55682,-21.69611 1.63258,0 7.40242,20.54171 8.55682,21.69611 1.15441,1.15441 21.69611,6.92425 21.69611,8.55682 0,1.63258 -20.5417,7.40242 -21.69611,8.55683 -1.1544,1.1544 -6.92424,21.69611 -8.55682,21.69611 z"
       transform="matrix(0.81081593,-0.41313135,0.41313259,0.81081837,64.232193,322.91987)" />
    <path
       sodipodi:type="star"
       style="opacity:1;fill:#8da8cb;fill-opacity:1;stroke:#2f4768;stroke-width:3.49999475;stroke-miterlimit:4;stroke-dasharray:none;stroke-opacity:1"
       id="path4144-1-34"
       sodipodi:sides="4"
       sodipodi:cx="775"
       sodipodi:cy="167.36169"
       sodipodi:r1="30.252934"
       sodipodi:r2="12.101174"
       sodipodi:arg1="1.5707963"
       sodipodi:arg2="2.3561945"
       inkscape:flatsided="false"
       inkscape:rounded="0.07"
       inkscape:randomized="0"
       d="m 775,197.61463 c -1.63258,0 -7.40242,-20.54171 -8.55682,-21.69611 -1.15441,-1.15441 -21.69611,-6.92425 -21.69611,-8.55682 0,-1.63258 20.5417,-7.40242 21.69611,-8.55683 1.1544,-1.1544 6.92424,-21.69611 8.55682,-21.69611 1.63258,0 7.40242,20.54171 8.55682,21.69611 1.15441,1.15441 21.69611,6.92425 21.69611,8.55682 0,1.63258 -20.5417,7.40242 -21.69611,8.55683 -1.1544,1.1544 -6.92424,21.69611 -8.55682,21.69611 z"
       transform="matrix(0.89399313,-0.29047597,0.29047684,0.89399581,33.540631,242.86042)" />
    <path
       sodipodi:type="star"
       style="opacity:1;fill:#8da8cb;fill-opacity:1;stroke:#2f4768;stroke-width:3.49999475;stroke-miterlimit:4;stroke-dasharray:none;stroke-opacity:1"
       id="path4144-1-0"
       sodipodi:sides="4"
       sodipodi:cx="845"
       sodipodi:cy="167.36169"
       sodipodi:r1="30.252934"
       sodipodi:r2="12.101174"
       sodipodi:arg1="1.5707963"
       sodipodi:arg2="2.3561945"
       inkscape:flatsided="false"
       inkscape:rounded="0.07"
       inkscape:randomized="0"
       d="m 845,197.61463 c -1.63258,0 -7.40242,-20.54171 -8.55682,-21.69611 -1.15441,-1.15441 -21.69611,-6.92425 -21.69611,-8.55682 0,-1.63258 20.5417,-7.40242 21.69611,-8.55683 1.1544,-1.1544 6.92424,-21.69611 8.55682,-21.69611 1.63258,0 7.40242,20.54171 8.55682,21.69611 1.15441,1.15441 21.69611,6.92425 21.69611,8.55682 0,1.63258 -20.5417,7.40242 -21.69611,8.55683 -1.1544,1.1544 -6.92424,21.69611 -8.55682,21.69611 z"
       transform="matrix(0.95805769,-0.15174144,0.15174188,0.95806056,10.045473,135.24107)" />
    <path
       sodipodi:type="star"
       style="opacity:1;fill:#8da8cb;fill-opacity:1;stroke:#2f4768;stroke-width:3.49999475;stroke-miterlimit:4;stroke-dasharray:none;stroke-opacity:1"
       id="path4144-1-24"
       sodipodi:sides="4"
       sodipodi:cx="915"
       sodipodi:cy="167.36169"
       sodipodi:r1="30.252934"
       sodipodi:r2="12.101174"
       sodipodi:arg1="1.5707963"
       sodipodi:arg2="2.3561945"
       inkscape:flatsided="false"
       inkscape:rounded="0.07"
       inkscape:randomized="0"
       d="m 915,197.61463 c -1.63258,0 -7.40242,-20.54171 -8.55682,-21.69611 -1.15441,-1.15441 -21.69611,-6.92425 -21.69611,-8.55682 0,-1.63258 20.5417,-7.40242 21.69611,-8.55683 1.1544,-1.1544 6.92424,-21.69611 8.55682,-21.69611 1.63258,0 7.40242,20.54171 8.55682,21.69611 1.15441,1.15441 21.69611,6.92425 21.69611,8.55682 0,1.63258 -20.5417,7.40242 -21.69611,8.55683 -1.1544,1.1544 -6.92424,21.69611 -8.55682,21.69611 z"
       transform="scale(1,1.000003)" />
  </g>
</svg>
