<?xml version="1.0" encoding="UTF-8" standalone="no"?>
<!-- Created with Inkscape (http://www.inkscape.org/) -->

<svg
   xmlns:dc="http://purl.org/dc/elements/1.1/"
   xmlns:cc="http://creativecommons.org/ns#"
   xmlns:rdf="http://www.w3.org/1999/02/22-rdf-syntax-ns#"
   xmlns:svg="http://www.w3.org/2000/svg"
   xmlns="http://www.w3.org/2000/svg"
   xmlns:sodipodi="http://sodipodi.sourceforge.net/DTD/sodipodi-0.dtd"
   xmlns:inkscape="http://www.inkscape.org/namespaces/inkscape"
   width="846.66669mm"
   height="42.333332mm"
   viewBox="0 0 3000.0001 149.99999"
   id="svg4162"
   version="1.1"
   inkscape:version="0.91 r13725"
   sodipodi:docname="Predator_Shield_Single_Line.svg">
  <defs
     id="defs4164" />
  <sodipodi:namedview
     id="base"
     pagecolor="#ffffff"
     bordercolor="#666666"
     borderopacity="1.0"
     inkscape:pageopacity="0.0"
     inkscape:pageshadow="2"
     inkscape:zoom="0.24748738"
     inkscape:cx="1504.2814"
     inkscape:cy="-167.24091"
     inkscape:document-units="px"
     inkscape:current-layer="layer1"
     showgrid="false"
     inkscape:window-width="1920"
     inkscape:window-height="1018"
     inkscape:window-x="-8"
     inkscape:window-y="-8"
     inkscape:window-maximized="1"
     fit-margin-top="0"
     fit-margin-left="0"
     fit-margin-right="0"
     fit-margin-bottom="0" />
  <metadata
     id="metadata4167">
    <rdf:RDF>
      <cc:Work
         rdf:about="">
        <dc:format>image/svg+xml</dc:format>
        <dc:type
           rdf:resource="http://purl.org/dc/dcmitype/StillImage" />
        <dc:title></dc:title>
      </cc:Work>
    </rdf:RDF>
  </metadata>
  <g
     inkscape:label="Layer 1"
     inkscape:groupmode="layer"
     id="layer1"
     transform="translate(-1043.5714,-88.790802)">
    <rect
       style="opacity:1;fill:#e9afaf;fill-opacity:1;stroke:#e85c00;stroke-width:3.42019558;stroke-miterlimit:4;stroke-dasharray:none;stroke-opacity:1"
       id="rect4173-1-57"
       width="146.5798"
       height="146.5798"
       x="3895.2815"
       y="90.5009" />
    <g
       id="g4144-2-2"
       transform="matrix(0.73,0,0,0.73,3909.6511,117.63968)"
       style="stroke-width:4.1095891;stroke-miterlimit:4;stroke-dasharray:none">
      <path
         sodipodi:nodetypes="czczc"
         inkscape:connector-curvature="0"
         id="path4136-1-63-0"
         d="m 18.350661,13.896419 c 0,0 33.40086,23.78039 61.84701,23.75599 28.446149,-0.0244 62.928919,-24.15955 62.928919,-24.15955 C 148.0548,83.653899 96.289801,114.5761 80.356101,114.4041 64.422401,114.232 13.0548,83.653899 18.350661,13.896419 Z"
         style="fill:#f1565e;fill-opacity:1;fill-rule:evenodd;stroke:#9d0d14;stroke-width:4.1095891;stroke-linecap:butt;stroke-linejoin:miter;stroke-miterlimit:4;stroke-dasharray:none;stroke-opacity:1" />
      <ellipse
         cx="69.328194"
         cy="80.804161"
         rx="4.293148"
         ry="9.0913734"
         id="path4157-7-9"
         style="opacity:1;fill:#ffffff;fill-opacity:1;stroke:#9d0d14;stroke-width:4.1095891;stroke-miterlimit:4;stroke-dasharray:none;stroke-opacity:1" />
      <ellipse
         cx="90.288857"
         cy="80.299095"
         rx="4.293148"
         ry="9.0913734"
         id="path4157-4-4-7"
         style="opacity:1;fill:#ffffff;fill-opacity:1;stroke:#9d0d14;stroke-width:4.1095891;stroke-miterlimit:4;stroke-dasharray:none;stroke-opacity:1" />
    </g>
    <rect
       style="opacity:1;fill:#e9afaf;fill-opacity:1;stroke:#e85c00;stroke-width:3.42019558;stroke-miterlimit:4;stroke-dasharray:none;stroke-opacity:1"
       id="rect4173-1-57-5"
       width="146.5798"
       height="146.5798"
       x="3745.2815"
       y="90.5009" />
    <g
       id="g4144-2-2-3"
       transform="matrix(0.76,0,0,0.76,3757.2297,115.74306)"
       style="stroke-width:3.94736838;stroke-miterlimit:4;stroke-dasharray:none">
      <path
         sodipodi:nodetypes="czczc"
         inkscape:connector-curvature="0"
         id="path4136-1-63-0-5"
         d="m 18.350661,13.896419 c 0,0 33.40086,23.78039 61.84701,23.75599 28.446149,-0.0244 62.928919,-24.15955 62.928919,-24.15955 C 148.0548,83.653899 96.289801,114.5761 80.356101,114.4041 64.422401,114.232 13.0548,83.653899 18.350661,13.896419 Z"
         style="fill:#f1565e;fill-opacity:1;fill-rule:evenodd;stroke:#9d0d14;stroke-width:3.94736838;stroke-linecap:butt;stroke-linejoin:miter;stroke-miterlimit:4;stroke-dasharray:none;stroke-opacity:1" />
      <ellipse
         cx="69.328194"
         cy="80.804161"
         rx="4.293148"
         ry="9.0913734"
         id="path4157-7-9-3"
         style="opacity:1;fill:#ffffff;fill-opacity:1;stroke:#9d0d14;stroke-width:3.94736838;stroke-miterlimit:4;stroke-dasharray:none;stroke-opacity:1" />
      <ellipse
         cx="90.288857"
         cy="80.299095"
         rx="4.293148"
         ry="9.0913734"
         id="path4157-4-4-7-6"
         style="opacity:1;fill:#ffffff;fill-opacity:1;stroke:#9d0d14;stroke-width:3.94736838;stroke-miterlimit:4;stroke-dasharray:none;stroke-opacity:1" />
    </g>
    <rect
       style="opacity:1;fill:#e9afaf;fill-opacity:1;stroke:#e85c00;stroke-width:3.42019558;stroke-miterlimit:4;stroke-dasharray:none;stroke-opacity:1"
       id="rect4173-1-57-6"
       width="146.5798"
       height="146.5798"
       x="3595.2815"
       y="90.5009" />
    <g
       id="g4144-2-2-9"
       transform="matrix(0.79,0,0,0.79,3604.8083,113.84644)"
       style="stroke-width:3.79746842;stroke-miterlimit:4;stroke-dasharray:none">
      <path
         sodipodi:nodetypes="czczc"
         inkscape:connector-curvature="0"
         id="path4136-1-63-0-3"
         d="m 18.350661,13.896419 c 0,0 33.40086,23.78039 61.84701,23.75599 28.446149,-0.0244 62.928919,-24.15955 62.928919,-24.15955 C 148.0548,83.653899 96.289801,114.5761 80.356101,114.4041 64.422401,114.232 13.0548,83.653899 18.350661,13.896419 Z"
         style="fill:#f1565e;fill-opacity:1;fill-rule:evenodd;stroke:#9d0d14;stroke-width:3.79746842;stroke-linecap:butt;stroke-linejoin:miter;stroke-miterlimit:4;stroke-dasharray:none;stroke-opacity:1" />
      <ellipse
         cx="69.328194"
         cy="80.804161"
         rx="4.293148"
         ry="9.0913734"
         id="path4157-7-9-6"
         style="opacity:1;fill:#ffffff;fill-opacity:1;stroke:#9d0d14;stroke-width:3.79746842;stroke-miterlimit:4;stroke-dasharray:none;stroke-opacity:1" />
      <ellipse
         cx="90.288857"
         cy="80.299095"
         rx="4.293148"
         ry="9.0913734"
         id="path4157-4-4-7-0"
         style="opacity:1;fill:#ffffff;fill-opacity:1;stroke:#9d0d14;stroke-width:3.79746842;stroke-miterlimit:4;stroke-dasharray:none;stroke-opacity:1" />
    </g>
    <rect
       style="opacity:1;fill:#e9afaf;fill-opacity:1;stroke:#e85c00;stroke-width:3.42019558;stroke-miterlimit:4;stroke-dasharray:none;stroke-opacity:1"
       id="rect4173-1-57-0"
       width="146.5798"
       height="146.5798"
       x="3445.2815"
       y="90.5009" />
    <g
       id="g4144-2-2-6"
       transform="matrix(0.82,0,0,0.82,3452.3869,111.94982)"
       style="stroke-width:3.65853667;stroke-miterlimit:4;stroke-dasharray:none">
      <path
         sodipodi:nodetypes="czczc"
         inkscape:connector-curvature="0"
         id="path4136-1-63-0-6"
         d="m 18.350661,13.896419 c 0,0 33.40086,23.78039 61.84701,23.75599 28.446149,-0.0244 62.928919,-24.15955 62.928919,-24.15955 C 148.0548,83.653899 96.289801,114.5761 80.356101,114.4041 64.422401,114.232 13.0548,83.653899 18.350661,13.896419 Z"
         style="fill:#f1565e;fill-opacity:1;fill-rule:evenodd;stroke:#9d0d14;stroke-width:3.65853667;stroke-linecap:butt;stroke-linejoin:miter;stroke-miterlimit:4;stroke-dasharray:none;stroke-opacity:1" />
      <ellipse
         cx="69.328194"
         cy="80.804161"
         rx="4.293148"
         ry="9.0913734"
         id="path4157-7-9-34"
         style="opacity:1;fill:#ffffff;fill-opacity:1;stroke:#9d0d14;stroke-width:3.65853667;stroke-miterlimit:4;stroke-dasharray:none;stroke-opacity:1" />
      <ellipse
         cx="90.288857"
         cy="80.299095"
         rx="4.293148"
         ry="9.0913734"
         id="path4157-4-4-7-1"
         style="opacity:1;fill:#ffffff;fill-opacity:1;stroke:#9d0d14;stroke-width:3.65853667;stroke-miterlimit:4;stroke-dasharray:none;stroke-opacity:1" />
    </g>
    <rect
       style="opacity:1;fill:#e9afaf;fill-opacity:1;stroke:#e85c00;stroke-width:3.42019558;stroke-miterlimit:4;stroke-dasharray:none;stroke-opacity:1"
       id="rect4173-1-57-4"
       width="146.5798"
       height="146.5798"
       x="3295.2815"
       y="90.5009" />
    <g
       id="g4144-2-2-1"
       transform="matrix(0.85,0,0,0.85,3299.9655,110.0532)"
       style="stroke-width:3.52941179;stroke-miterlimit:4;stroke-dasharray:none">
      <path
         sodipodi:nodetypes="czczc"
         inkscape:connector-curvature="0"
         id="path4136-1-63-0-69"
         d="m 18.350661,13.896419 c 0,0 33.40086,23.78039 61.84701,23.75599 28.446149,-0.0244 62.928919,-24.15955 62.928919,-24.15955 C 148.0548,83.653899 96.289801,114.5761 80.356101,114.4041 64.422401,114.232 13.0548,83.653899 18.350661,13.896419 Z"
         style="fill:#f1565e;fill-opacity:1;fill-rule:evenodd;stroke:#9d0d14;stroke-width:3.52941179;stroke-linecap:butt;stroke-linejoin:miter;stroke-miterlimit:4;stroke-dasharray:none;stroke-opacity:1" />
      <ellipse
         cx="69.328194"
         cy="80.804161"
         rx="4.293148"
         ry="9.0913734"
         id="path4157-7-9-60"
         style="opacity:1;fill:#ffffff;fill-opacity:1;stroke:#9d0d14;stroke-width:3.52941179;stroke-miterlimit:4;stroke-dasharray:none;stroke-opacity:1" />
      <ellipse
         cx="90.288857"
         cy="80.299095"
         rx="4.293148"
         ry="9.0913734"
         id="path4157-4-4-7-07"
         style="opacity:1;fill:#ffffff;fill-opacity:1;stroke:#9d0d14;stroke-width:3.52941179;stroke-miterlimit:4;stroke-dasharray:none;stroke-opacity:1" />
    </g>
    <rect
       style="opacity:1;fill:#e9afaf;fill-opacity:1;stroke:#e85c00;stroke-width:3.42019558;stroke-miterlimit:4;stroke-dasharray:none;stroke-opacity:1"
       id="rect4173-1-57-7"
       width="146.5798"
       height="146.5798"
       x="3145.2815"
       y="90.5009" />
    <g
       id="g4144-2-2-62"
       transform="matrix(0.88,0,0,0.88,3147.5441,108.15658)"
       style="stroke-width:3.409091;stroke-miterlimit:4;stroke-dasharray:none">
      <path
         sodipodi:nodetypes="czczc"
         inkscape:connector-curvature="0"
         id="path4136-1-63-0-2"
         d="m 18.350661,13.896419 c 0,0 33.40086,23.78039 61.84701,23.75599 28.446149,-0.0244 62.928919,-24.15955 62.928919,-24.15955 C 148.0548,83.653899 96.289801,114.5761 80.356101,114.4041 64.422401,114.232 13.0548,83.653899 18.350661,13.896419 Z"
         style="fill:#f1565e;fill-opacity:1;fill-rule:evenodd;stroke:#9d0d14;stroke-width:3.409091;stroke-linecap:butt;stroke-linejoin:miter;stroke-miterlimit:4;stroke-dasharray:none;stroke-opacity:1" />
      <ellipse
         cx="69.328194"
         cy="80.804161"
         rx="4.293148"
         ry="9.0913734"
         id="path4157-7-9-62"
         style="opacity:1;fill:#ffffff;fill-opacity:1;stroke:#9d0d14;stroke-width:3.409091;stroke-miterlimit:4;stroke-dasharray:none;stroke-opacity:1" />
      <ellipse
         cx="90.288857"
         cy="80.299095"
         rx="4.293148"
         ry="9.0913734"
         id="path4157-4-4-7-10"
         style="opacity:1;fill:#ffffff;fill-opacity:1;stroke:#9d0d14;stroke-width:3.409091;stroke-miterlimit:4;stroke-dasharray:none;stroke-opacity:1" />
    </g>
    <rect
       style="opacity:1;fill:#e9afaf;fill-opacity:1;stroke:#e85c00;stroke-width:3.42019558;stroke-miterlimit:4;stroke-dasharray:none;stroke-opacity:1"
       id="rect4173-1-57-70"
       width="146.5798"
       height="146.5798"
       x="2995.2815"
       y="90.5009" />
    <g
       id="g4144-2-2-0"
       transform="matrix(0.91,0,0,0.91,2995.1228,106.25995)"
       style="stroke-width:3.29670334;stroke-miterlimit:4;stroke-dasharray:none">
      <path
         sodipodi:nodetypes="czczc"
         inkscape:connector-curvature="0"
         id="path4136-1-63-0-52"
         d="m 18.350661,13.896419 c 0,0 33.40086,23.78039 61.84701,23.75599 28.446149,-0.0244 62.928919,-24.15955 62.928919,-24.15955 C 148.0548,83.653899 96.289801,114.5761 80.356101,114.4041 64.422401,114.232 13.0548,83.653899 18.350661,13.896419 Z"
         style="fill:#f1565e;fill-opacity:1;fill-rule:evenodd;stroke:#9d0d14;stroke-width:3.29670334;stroke-linecap:butt;stroke-linejoin:miter;stroke-miterlimit:4;stroke-dasharray:none;stroke-opacity:1" />
      <ellipse
         cx="69.328194"
         cy="80.804161"
         rx="4.293148"
         ry="9.0913734"
         id="path4157-7-9-2"
         style="opacity:1;fill:#ffffff;fill-opacity:1;stroke:#9d0d14;stroke-width:3.29670334;stroke-miterlimit:4;stroke-dasharray:none;stroke-opacity:1" />
      <ellipse
         cx="90.288857"
         cy="80.299095"
         rx="4.293148"
         ry="9.0913734"
         id="path4157-4-4-7-7"
         style="opacity:1;fill:#ffffff;fill-opacity:1;stroke:#9d0d14;stroke-width:3.29670334;stroke-miterlimit:4;stroke-dasharray:none;stroke-opacity:1" />
    </g>
    <rect
       style="opacity:1;fill:#e9afaf;fill-opacity:1;stroke:#e85c00;stroke-width:3.42019558;stroke-miterlimit:4;stroke-dasharray:none;stroke-opacity:1"
       id="rect4173-1-57-00"
       width="146.5798"
       height="146.5798"
       x="2845.2815"
       y="90.5009" />
    <g
       id="g4144-2-2-4"
       transform="matrix(0.94,0,0,0.94,2842.7014,104.36333)"
       style="stroke-width:3.19148946;stroke-miterlimit:4;stroke-dasharray:none">
      <path
         sodipodi:nodetypes="czczc"
         inkscape:connector-curvature="0"
         id="path4136-1-63-0-53"
         d="m 18.350661,13.896419 c 0,0 33.40086,23.78039 61.84701,23.75599 28.446149,-0.0244 62.928919,-24.15955 62.928919,-24.15955 C 148.0548,83.653899 96.289801,114.5761 80.356101,114.4041 64.422401,114.232 13.0548,83.653899 18.350661,13.896419 Z"
         style="fill:#f1565e;fill-opacity:1;fill-rule:evenodd;stroke:#9d0d14;stroke-width:3.19148946;stroke-linecap:butt;stroke-linejoin:miter;stroke-miterlimit:4;stroke-dasharray:none;stroke-opacity:1" />
      <ellipse
         cx="69.328194"
         cy="80.804161"
         rx="4.293148"
         ry="9.0913734"
         id="path4157-7-9-27"
         style="opacity:1;fill:#ffffff;fill-opacity:1;stroke:#9d0d14;stroke-width:3.19148946;stroke-miterlimit:4;stroke-dasharray:none;stroke-opacity:1" />
      <ellipse
         cx="90.288857"
         cy="80.299095"
         rx="4.293148"
         ry="9.0913734"
         id="path4157-4-4-7-2"
         style="opacity:1;fill:#ffffff;fill-opacity:1;stroke:#9d0d14;stroke-width:3.19148946;stroke-miterlimit:4;stroke-dasharray:none;stroke-opacity:1" />
    </g>
    <rect
       style="opacity:1;fill:#e9afaf;fill-opacity:1;stroke:#e85c00;stroke-width:3.42019558;stroke-miterlimit:4;stroke-dasharray:none;stroke-opacity:1"
       id="rect4173-1-57-51"
       width="146.5798"
       height="146.5798"
       x="2695.2815"
       y="90.5009" />
    <g
       id="g4144-2-2-5"
       transform="matrix(0.97,0,0,0.97,2690.28,102.46671)"
       style="stroke-width:3.09278345;stroke-miterlimit:4;stroke-dasharray:none">
      <path
         sodipodi:nodetypes="czczc"
         inkscape:connector-curvature="0"
         id="path4136-1-63-0-26"
         d="m 18.350661,13.896419 c 0,0 33.40086,23.78039 61.84701,23.75599 28.446149,-0.0244 62.928919,-24.15955 62.928919,-24.15955 C 148.0548,83.653899 96.289801,114.5761 80.356101,114.4041 64.422401,114.232 13.0548,83.653899 18.350661,13.896419 Z"
         style="fill:#f1565e;fill-opacity:1;fill-rule:evenodd;stroke:#9d0d14;stroke-width:3.09278345;stroke-linecap:butt;stroke-linejoin:miter;stroke-miterlimit:4;stroke-dasharray:none;stroke-opacity:1" />
      <ellipse
         cx="69.328194"
         cy="80.804161"
         rx="4.293148"
         ry="9.0913734"
         id="path4157-7-9-8"
         style="opacity:1;fill:#ffffff;fill-opacity:1;stroke:#9d0d14;stroke-width:3.09278345;stroke-miterlimit:4;stroke-dasharray:none;stroke-opacity:1" />
      <ellipse
         cx="90.288857"
         cy="80.299095"
         rx="4.293148"
         ry="9.0913734"
         id="path4157-4-4-7-5"
         style="opacity:1;fill:#ffffff;fill-opacity:1;stroke:#9d0d14;stroke-width:3.09278345;stroke-miterlimit:4;stroke-dasharray:none;stroke-opacity:1" />
    </g>
    <rect
       style="opacity:1;fill:#e9afaf;fill-opacity:1;stroke:#e85c00;stroke-width:3.42019558;stroke-miterlimit:4;stroke-dasharray:none;stroke-opacity:1"
       id="rect4173-1-57-53"
       width="146.5798"
       height="146.5798"
       x="2545.2815"
       y="90.5009" />
    <g
       id="g4144-2-2-8"
       transform="translate(2537.8587,100.57009)"
       style="stroke-width:3;stroke-miterlimit:4;stroke-dasharray:none">
      <path
         sodipodi:nodetypes="czczc"
         inkscape:connector-curvature="0"
         id="path4136-1-63-0-7"
         d="m 18.350661,13.896419 c 0,0 33.40086,23.78039 61.84701,23.75599 28.446149,-0.0244 62.928919,-24.15955 62.928919,-24.15955 C 148.0548,83.653899 96.289801,114.5761 80.356101,114.4041 64.422401,114.232 13.0548,83.653899 18.350661,13.896419 Z"
         style="fill:#f1565e;fill-opacity:1;fill-rule:evenodd;stroke:#9d0d14;stroke-width:3;stroke-linecap:butt;stroke-linejoin:miter;stroke-miterlimit:4;stroke-dasharray:none;stroke-opacity:1" />
      <ellipse
         cx="69.328194"
         cy="80.804161"
         rx="4.293148"
         ry="9.0913734"
         id="path4157-7-9-9"
         style="opacity:1;fill:#ffffff;fill-opacity:1;stroke:#9d0d14;stroke-width:3;stroke-miterlimit:4;stroke-dasharray:none;stroke-opacity:1" />
      <ellipse
         cx="90.288857"
         cy="80.299095"
         rx="4.293148"
         ry="9.0913734"
         id="path4157-4-4-7-8"
         style="opacity:1;fill:#ffffff;fill-opacity:1;stroke:#9d0d14;stroke-width:3;stroke-miterlimit:4;stroke-dasharray:none;stroke-opacity:1" />
    </g>
    <rect
       style="opacity:1;fill:#e9afaf;fill-opacity:1;stroke:#e85c00;stroke-width:3.42019558;stroke-miterlimit:4;stroke-dasharray:none;stroke-opacity:1"
       id="rect4173-1-57-3"
       width="146.5798"
       height="146.5798"
       x="2395.2815"
       y="90.5009" />
    <g
       id="g4144-2-2-89"
       transform="translate(2387.8587,100.57009)"
       style="stroke-width:3;stroke-miterlimit:4;stroke-dasharray:none">
      <path
         sodipodi:nodetypes="czczc"
         inkscape:connector-curvature="0"
         id="path4136-1-63-0-1"
         d="m 20.221525,15.376148 c 0,0 32.398834,23.066978 59.9916,23.04331 C 107.80589,38.39579 141.25418,14.984695 141.25418,14.984695 146.03454,83.040903 95.822491,113.03544 80.366802,112.8686 64.911113,112.70166 15.08454,83.040903 20.221525,15.376148 Z"
         style="fill:#f1565e;fill-opacity:1;fill-rule:evenodd;stroke:#9d0d14;stroke-width:3;stroke-linecap:butt;stroke-linejoin:miter;stroke-miterlimit:4;stroke-dasharray:none;stroke-opacity:1" />
      <ellipse
         cx="69.328194"
         cy="80.804161"
         rx="4.293148"
         ry="9.0913734"
         id="path4157-7-9-87"
         style="opacity:1;fill:#ffffff;fill-opacity:1;stroke:#9d0d14;stroke-width:3;stroke-miterlimit:4;stroke-dasharray:none;stroke-opacity:1" />
      <ellipse
         cx="90.288857"
         cy="80.299095"
         rx="4.293148"
         ry="9.0913734"
         id="path4157-4-4-7-9"
         style="opacity:1;fill:#ffffff;fill-opacity:1;stroke:#9d0d14;stroke-width:3;stroke-miterlimit:4;stroke-dasharray:none;stroke-opacity:1" />
    </g>
    <rect
       style="opacity:1;fill:#e9afaf;fill-opacity:1;stroke:#e85c00;stroke-width:3.42019558;stroke-miterlimit:4;stroke-dasharray:none;stroke-opacity:1"
       id="rect4173-1-57-8"
       width="146.5798"
       height="146.5798"
       x="1195.2815"
       y="90.5009" />
    <g
       id="g4144-2-2-15"
       transform="matrix(0.73,0,0,0.73,1209.6512,117.63968)"
       style="stroke-width:4.1095891;stroke-miterlimit:4;stroke-dasharray:none">
      <path
         sodipodi:nodetypes="czczc"
         inkscape:connector-curvature="0"
         id="path4136-1-63-0-33"
         d="m 18.350661,13.896419 c 0,0 33.40086,23.78039 61.84701,23.75599 28.446149,-0.0244 62.928919,-24.15955 62.928919,-24.15955 C 148.0548,83.653899 96.289801,114.5761 80.356101,114.4041 64.422401,114.232 13.0548,83.653899 18.350661,13.896419 Z"
         style="fill:#f1565e;fill-opacity:1;fill-rule:evenodd;stroke:#9d0d14;stroke-width:4.1095891;stroke-linecap:butt;stroke-linejoin:miter;stroke-miterlimit:4;stroke-dasharray:none;stroke-opacity:1" />
      <ellipse
         cx="69.328194"
         cy="80.804161"
         rx="4.293148"
         ry="9.0913734"
         id="path4157-7-9-33"
         style="opacity:1;fill:#ffffff;fill-opacity:1;stroke:#9d0d14;stroke-width:4.1095891;stroke-miterlimit:4;stroke-dasharray:none;stroke-opacity:1" />
      <ellipse
         cx="90.288857"
         cy="80.299095"
         rx="4.293148"
         ry="9.0913734"
         id="path4157-4-4-7-04"
         style="opacity:1;fill:#ffffff;fill-opacity:1;stroke:#9d0d14;stroke-width:4.1095891;stroke-miterlimit:4;stroke-dasharray:none;stroke-opacity:1" />
    </g>
    <rect
       style="opacity:1;fill:#e9afaf;fill-opacity:1;stroke:#e85c00;stroke-width:3.42019558;stroke-miterlimit:4;stroke-dasharray:none;stroke-opacity:1"
       id="rect4173-1-57-516"
       width="146.5798"
       height="146.5798"
       x="1345.2815"
       y="90.5009" />
    <g
       id="g4144-2-2-52"
       transform="matrix(0.76,0,0,0.76,1357.2298,115.74306)"
       style="stroke-width:3.94736838;stroke-miterlimit:4;stroke-dasharray:none">
      <path
         sodipodi:nodetypes="czczc"
         inkscape:connector-curvature="0"
         id="path4136-1-63-0-77"
         d="m 18.350661,13.896419 c 0,0 33.40086,23.78039 61.84701,23.75599 28.446149,-0.0244 62.928919,-24.15955 62.928919,-24.15955 C 148.0548,83.653899 96.289801,114.5761 80.356101,114.4041 64.422401,114.232 13.0548,83.653899 18.350661,13.896419 Z"
         style="fill:#f1565e;fill-opacity:1;fill-rule:evenodd;stroke:#9d0d14;stroke-width:3.94736838;stroke-linecap:butt;stroke-linejoin:miter;stroke-miterlimit:4;stroke-dasharray:none;stroke-opacity:1" />
      <ellipse
         cx="69.328194"
         cy="80.804161"
         rx="4.293148"
         ry="9.0913734"
         id="path4157-7-9-37"
         style="opacity:1;fill:#ffffff;fill-opacity:1;stroke:#9d0d14;stroke-width:3.94736838;stroke-miterlimit:4;stroke-dasharray:none;stroke-opacity:1" />
      <ellipse
         cx="90.288857"
         cy="80.299095"
         rx="4.293148"
         ry="9.0913734"
         id="path4157-4-4-7-98"
         style="opacity:1;fill:#ffffff;fill-opacity:1;stroke:#9d0d14;stroke-width:3.94736838;stroke-miterlimit:4;stroke-dasharray:none;stroke-opacity:1" />
    </g>
    <rect
       style="opacity:1;fill:#e9afaf;fill-opacity:1;stroke:#e85c00;stroke-width:3.42019558;stroke-miterlimit:4;stroke-dasharray:none;stroke-opacity:1"
       id="rect4173-1-57-2"
       width="146.5798"
       height="146.5798"
       x="1495.2815"
       y="90.5009" />
    <g
       id="g4144-2-2-16"
       transform="matrix(0.79,0,0,0.79,1504.8084,113.84644)"
       style="stroke-width:3.79746842;stroke-miterlimit:4;stroke-dasharray:none">
      <path
         sodipodi:nodetypes="czczc"
         inkscape:connector-curvature="0"
         id="path4136-1-63-0-27"
         d="m 18.350661,13.896419 c 0,0 33.40086,23.78039 61.84701,23.75599 28.446149,-0.0244 62.928919,-24.15955 62.928919,-24.15955 C 148.0548,83.653899 96.289801,114.5761 80.356101,114.4041 64.422401,114.232 13.0548,83.653899 18.350661,13.896419 Z"
         style="fill:#f1565e;fill-opacity:1;fill-rule:evenodd;stroke:#9d0d14;stroke-width:3.79746842;stroke-linecap:butt;stroke-linejoin:miter;stroke-miterlimit:4;stroke-dasharray:none;stroke-opacity:1" />
      <ellipse
         cx="69.328194"
         cy="80.804161"
         rx="4.293148"
         ry="9.0913734"
         id="path4157-7-9-92"
         style="opacity:1;fill:#ffffff;fill-opacity:1;stroke:#9d0d14;stroke-width:3.79746842;stroke-miterlimit:4;stroke-dasharray:none;stroke-opacity:1" />
      <ellipse
         cx="90.288857"
         cy="80.299095"
         rx="4.293148"
         ry="9.0913734"
         id="path4157-4-4-7-03"
         style="opacity:1;fill:#ffffff;fill-opacity:1;stroke:#9d0d14;stroke-width:3.79746842;stroke-miterlimit:4;stroke-dasharray:none;stroke-opacity:1" />
    </g>
    <rect
       style="opacity:1;fill:#e9afaf;fill-opacity:1;stroke:#e85c00;stroke-width:3.42019558;stroke-miterlimit:4;stroke-dasharray:none;stroke-opacity:1"
       id="rect4173-1-57-22"
       width="146.5798"
       height="146.5798"
       x="1645.2815"
       y="90.5009" />
    <g
       id="g4144-2-2-63"
       transform="matrix(0.82,0,0,0.82,1652.387,111.94982)"
       style="stroke-width:3.65853667;stroke-miterlimit:4;stroke-dasharray:none">
      <path
         sodipodi:nodetypes="czczc"
         inkscape:connector-curvature="0"
         id="path4136-1-63-0-72"
         d="m 18.350661,13.896419 c 0,0 33.40086,23.78039 61.84701,23.75599 28.446149,-0.0244 62.928919,-24.15955 62.928919,-24.15955 C 148.0548,83.653899 96.289801,114.5761 80.356101,114.4041 64.422401,114.232 13.0548,83.653899 18.350661,13.896419 Z"
         style="fill:#f1565e;fill-opacity:1;fill-rule:evenodd;stroke:#9d0d14;stroke-width:3.65853667;stroke-linecap:butt;stroke-linejoin:miter;stroke-miterlimit:4;stroke-dasharray:none;stroke-opacity:1" />
      <ellipse
         cx="69.328194"
         cy="80.804161"
         rx="4.293148"
         ry="9.0913734"
         id="path4157-7-9-29"
         style="opacity:1;fill:#ffffff;fill-opacity:1;stroke:#9d0d14;stroke-width:3.65853667;stroke-miterlimit:4;stroke-dasharray:none;stroke-opacity:1" />
      <ellipse
         cx="90.288857"
         cy="80.299095"
         rx="4.293148"
         ry="9.0913734"
         id="path4157-4-4-7-3"
         style="opacity:1;fill:#ffffff;fill-opacity:1;stroke:#9d0d14;stroke-width:3.65853667;stroke-miterlimit:4;stroke-dasharray:none;stroke-opacity:1" />
    </g>
    <rect
       style="opacity:1;fill:#e9afaf;fill-opacity:1;stroke:#e85c00;stroke-width:3.42019558;stroke-miterlimit:4;stroke-dasharray:none;stroke-opacity:1"
       id="rect4173-1-57-29"
       width="146.5798"
       height="146.5798"
       x="1795.2815"
       y="90.5009" />
    <g
       id="g4144-2-2-56"
       transform="matrix(0.85,0,0,0.85,1799.9656,110.0532)"
       style="stroke-width:3.52941179;stroke-miterlimit:4;stroke-dasharray:none">
      <path
         sodipodi:nodetypes="czczc"
         inkscape:connector-curvature="0"
         id="path4136-1-63-0-79"
         d="m 18.350661,13.896419 c 0,0 33.40086,23.78039 61.84701,23.75599 28.446149,-0.0244 62.928919,-24.15955 62.928919,-24.15955 C 148.0548,83.653899 96.289801,114.5761 80.356101,114.4041 64.422401,114.232 13.0548,83.653899 18.350661,13.896419 Z"
         style="fill:#f1565e;fill-opacity:1;fill-rule:evenodd;stroke:#9d0d14;stroke-width:3.52941179;stroke-linecap:butt;stroke-linejoin:miter;stroke-miterlimit:4;stroke-dasharray:none;stroke-opacity:1" />
      <ellipse
         cx="69.328194"
         cy="80.804161"
         rx="4.293148"
         ry="9.0913734"
         id="path4157-7-9-93"
         style="opacity:1;fill:#ffffff;fill-opacity:1;stroke:#9d0d14;stroke-width:3.52941179;stroke-miterlimit:4;stroke-dasharray:none;stroke-opacity:1" />
      <ellipse
         cx="90.288857"
         cy="80.299095"
         rx="4.293148"
         ry="9.0913734"
         id="path4157-4-4-7-24"
         style="opacity:1;fill:#ffffff;fill-opacity:1;stroke:#9d0d14;stroke-width:3.52941179;stroke-miterlimit:4;stroke-dasharray:none;stroke-opacity:1" />
    </g>
    <rect
       style="opacity:1;fill:#e9afaf;fill-opacity:1;stroke:#e85c00;stroke-width:3.42019558;stroke-miterlimit:4;stroke-dasharray:none;stroke-opacity:1"
       id="rect4173-1-57-38"
       width="146.5798"
       height="146.5798"
       x="1945.2815"
       y="90.5009" />
    <g
       id="g4144-2-2-7"
       transform="matrix(0.88,0,0,0.88,1947.5442,108.15658)"
       style="stroke-width:3.409091;stroke-miterlimit:4;stroke-dasharray:none">
      <path
         sodipodi:nodetypes="czczc"
         inkscape:connector-curvature="0"
         id="path4136-1-63-0-68"
         d="m 18.350661,13.896419 c 0,0 33.40086,23.78039 61.84701,23.75599 28.446149,-0.0244 62.928919,-24.15955 62.928919,-24.15955 C 148.0548,83.653899 96.289801,114.5761 80.356101,114.4041 64.422401,114.232 13.0548,83.653899 18.350661,13.896419 Z"
         style="fill:#f1565e;fill-opacity:1;fill-rule:evenodd;stroke:#9d0d14;stroke-width:3.409091;stroke-linecap:butt;stroke-linejoin:miter;stroke-miterlimit:4;stroke-dasharray:none;stroke-opacity:1" />
      <ellipse
         cx="69.328194"
         cy="80.804161"
         rx="4.293148"
         ry="9.0913734"
         id="path4157-7-9-98"
         style="opacity:1;fill:#ffffff;fill-opacity:1;stroke:#9d0d14;stroke-width:3.409091;stroke-miterlimit:4;stroke-dasharray:none;stroke-opacity:1" />
      <ellipse
         cx="90.288857"
         cy="80.299095"
         rx="4.293148"
         ry="9.0913734"
         id="path4157-4-4-7-39"
         style="opacity:1;fill:#ffffff;fill-opacity:1;stroke:#9d0d14;stroke-width:3.409091;stroke-miterlimit:4;stroke-dasharray:none;stroke-opacity:1" />
    </g>
    <rect
       style="opacity:1;fill:#e9afaf;fill-opacity:1;stroke:#e85c00;stroke-width:3.42019558;stroke-miterlimit:4;stroke-dasharray:none;stroke-opacity:1"
       id="rect4173-1-57-9"
       width="146.5798"
       height="146.5798"
       x="2095.2815"
       y="90.5009" />
    <g
       id="g4144-2-2-2"
       transform="matrix(0.91,0,0,0.91,2095.1229,106.25995)"
       style="stroke-width:3.29670334;stroke-miterlimit:4;stroke-dasharray:none">
      <path
         sodipodi:nodetypes="czczc"
         inkscape:connector-curvature="0"
         id="path4136-1-63-0-4"
         d="m 18.350661,13.896419 c 0,0 33.40086,23.78039 61.84701,23.75599 28.446149,-0.0244 62.928919,-24.15955 62.928919,-24.15955 C 148.0548,83.653899 96.289801,114.5761 80.356101,114.4041 64.422401,114.232 13.0548,83.653899 18.350661,13.896419 Z"
         style="fill:#f1565e;fill-opacity:1;fill-rule:evenodd;stroke:#9d0d14;stroke-width:3.29670334;stroke-linecap:butt;stroke-linejoin:miter;stroke-miterlimit:4;stroke-dasharray:none;stroke-opacity:1" />
      <ellipse
         cx="69.328194"
         cy="80.804161"
         rx="4.293148"
         ry="9.0913734"
         id="path4157-7-9-0"
         style="opacity:1;fill:#ffffff;fill-opacity:1;stroke:#9d0d14;stroke-width:3.29670334;stroke-miterlimit:4;stroke-dasharray:none;stroke-opacity:1" />
      <ellipse
         cx="90.288857"
         cy="80.299095"
         rx="4.293148"
         ry="9.0913734"
         id="path4157-4-4-7-65"
         style="opacity:1;fill:#ffffff;fill-opacity:1;stroke:#9d0d14;stroke-width:3.29670334;stroke-miterlimit:4;stroke-dasharray:none;stroke-opacity:1" />
    </g>
    <rect
       style="opacity:1;fill:#e9afaf;fill-opacity:1;stroke:#e85c00;stroke-width:3.42019558;stroke-miterlimit:4;stroke-dasharray:none;stroke-opacity:1"
       id="rect4173-1-57-24"
       width="146.5798"
       height="146.5798"
       x="2245.2815"
       y="90.5009" />
    <g
       id="g4144-2-2-32"
       transform="matrix(0.94,0,0,0.94,2242.7015,104.36333)"
       style="stroke-width:3.19148946;stroke-miterlimit:4;stroke-dasharray:none">
      <path
         sodipodi:nodetypes="czczc"
         inkscape:connector-curvature="0"
         id="path4136-1-63-0-60"
         d="m 18.350661,13.896419 c 0,0 33.40086,23.78039 61.84701,23.75599 28.446149,-0.0244 62.928919,-24.15955 62.928919,-24.15955 C 148.0548,83.653899 96.289801,114.5761 80.356101,114.4041 64.422401,114.232 13.0548,83.653899 18.350661,13.896419 Z"
         style="fill:#f1565e;fill-opacity:1;fill-rule:evenodd;stroke:#9d0d14;stroke-width:3.19148946;stroke-linecap:butt;stroke-linejoin:miter;stroke-miterlimit:4;stroke-dasharray:none;stroke-opacity:1" />
      <ellipse
         cx="69.328194"
         cy="80.804161"
         rx="4.293148"
         ry="9.0913734"
         id="path4157-7-9-7"
         style="opacity:1;fill:#ffffff;fill-opacity:1;stroke:#9d0d14;stroke-width:3.19148946;stroke-miterlimit:4;stroke-dasharray:none;stroke-opacity:1" />
      <ellipse
         cx="90.288857"
         cy="80.299095"
         rx="4.293148"
         ry="9.0913734"
         id="path4157-4-4-7-56"
         style="opacity:1;fill:#ffffff;fill-opacity:1;stroke:#9d0d14;stroke-width:3.19148946;stroke-miterlimit:4;stroke-dasharray:none;stroke-opacity:1" />
    </g>
    <rect
       style="opacity:1;fill:#e9afaf;fill-opacity:1;stroke:#e85c00;stroke-width:3.42019558;stroke-miterlimit:4;stroke-dasharray:none;stroke-opacity:1"
       id="rect4173-1-57-96"
       width="146.5798"
       height="146.5798"
       x="1045.2815"
       y="90.5009" />
    <g
       id="g4144-2-2-632"
       transform="matrix(0.7,0,0,0.7,1062.0725,119.5363)"
       style="stroke-width:4.28571415;stroke-miterlimit:4;stroke-dasharray:none">
      <path
         sodipodi:nodetypes="czczc"
         inkscape:connector-curvature="0"
         id="path4136-1-63-0-55"
         d="m 18.350661,13.896419 c 0,0 33.40086,23.78039 61.84701,23.75599 28.446149,-0.0244 62.928919,-24.15955 62.928919,-24.15955 C 148.0548,83.653899 96.289801,114.5761 80.356101,114.4041 64.422401,114.232 13.0548,83.653899 18.350661,13.896419 Z"
         style="fill:#f1565e;fill-opacity:1;fill-rule:evenodd;stroke:#9d0d14;stroke-width:4.28571415;stroke-linecap:butt;stroke-linejoin:miter;stroke-miterlimit:4;stroke-dasharray:none;stroke-opacity:1" />
      <ellipse
         cx="69.328194"
         cy="80.804161"
         rx="4.293148"
         ry="9.0913734"
         id="path4157-7-9-5"
         style="opacity:1;fill:#ffffff;fill-opacity:1;stroke:#9d0d14;stroke-width:4.28571415;stroke-miterlimit:4;stroke-dasharray:none;stroke-opacity:1" />
      <ellipse
         cx="90.288857"
         cy="80.299095"
         rx="4.293148"
         ry="9.0913734"
         id="path4157-4-4-7-36"
         style="opacity:1;fill:#ffffff;fill-opacity:1;stroke:#9d0d14;stroke-width:4.28571415;stroke-miterlimit:4;stroke-dasharray:none;stroke-opacity:1" />
    </g>
  </g>
</svg>
